<svg xmlns="http://www.w3.org/2000/svg" viewBox="0 0 518.63 197.57"><defs><style>.cls-1{fill:#002c3a;}.cls-2{fill:#3ef97f;}</style></defs><title>logo-grasshopper-dark_1</title><g id="Layer_2" data-name="Layer 2"><g id="Layer_1-2" data-name="Layer 1"><path class="cls-1" d="M28.86,69.89h28a78,78,0,0,1-.49,8,29.87,29.87,0,0,1-1.58,6.78,26.62,26.62,0,0,1-3.48,6.61Q43.74,102,29,102a31.59,31.59,0,0,1-15-3.59A24.85,24.85,0,0,1,3.69,88.24,29.92,29.92,0,0,1,0,73.33,34.06,34.06,0,0,1,2.11,61.38,25.45,25.45,0,0,1,8.16,52.1a27,27,0,0,1,9.35-5.91,33.2,33.2,0,0,1,12-2.07,31.37,31.37,0,0,1,10.3,1.65A23.82,23.82,0,0,1,48,50.87a27.66,27.66,0,0,1,5.91,8.44L40.54,64.9A13.15,13.15,0,0,0,36,58.57a11.59,11.59,0,0,0-7.21-2.29,12.27,12.27,0,0,0-7.63,2.43,15.92,15.92,0,0,0-4.81,6.43A21.51,21.51,0,0,0,14.7,73.4a21.07,21.07,0,0,0,1.65,8.23A15.4,15.4,0,0,0,21.3,88,12.73,12.73,0,0,0,29,90.38a14.14,14.14,0,0,0,5.52-1,9.91,9.91,0,0,0,4-3.16A10.15,10.15,0,0,0,40.39,81H28.86Z"/><path class="cls-1" d="M76.18,63.24v6.05h.14q3.63-6.54,12-6.54h2.49V75.34a11.83,11.83,0,0,0-5.52-1.2c-3.32,0-5.68,1-7.06,3s-2,4.6-2,8.19v14.9H63.07l0-34.63Z"/><path class="cls-1" d="M136.09,63.24v36.95H123V96.08h-.14a11,11,0,0,1-4.68,4,15.56,15.56,0,0,1-6.47,1.37,17.43,17.43,0,0,1-9.6-2.74,18.13,18.13,0,0,1-6.68-7.21A20.79,20.79,0,0,1,93,81.7a20,20,0,0,1,1.37-7.49,18.39,18.39,0,0,1,3.84-6.36,18.13,18.13,0,0,1,5.87-4.27,17.59,17.59,0,0,1,7.42-1.53A18.2,18.2,0,0,1,118,63.24a13.3,13.3,0,0,1,5,3.62V63.24ZM115,73.4a8,8,0,0,0-4.47,1.16,6.85,6.85,0,0,0-3,3,8.54,8.54,0,0,0-1,4.18,8,8,0,0,0,2.25,5.91,9.31,9.31,0,0,0,12.37,0,8,8,0,0,0,2.22-5.91,8.89,8.89,0,0,0-1-4.18,7.13,7.13,0,0,0-3-3A8,8,0,0,0,115,73.4Z"/><path class="cls-1" d="M173.6,64.4l-4.39,8.37A14.4,14.4,0,0,0,162.14,71a6.62,6.62,0,0,0-2.78.63,1.88,1.88,0,0,0-1.3,1.86,1.79,1.79,0,0,0,.64,1.45,3.7,3.7,0,0,0,1.51.94,10.78,10.78,0,0,0,1.86.5c.35,0,1,.16,1.9.35q10.72,2.17,10.72,11a12.1,12.1,0,0,1-2.46,7.7,15.05,15.05,0,0,1-6.47,4.6,26.18,26.18,0,0,1-8.51,1.44,28,28,0,0,1-14.9-4.25L147.09,88a22.9,22.9,0,0,0,5.14,2.6,14.15,14.15,0,0,0,5.23,1.13,5.47,5.47,0,0,0,2.82-.71,2.29,2.29,0,0,0,1.3-2.07,2.19,2.19,0,0,0-1.09-2,11.35,11.35,0,0,0-2.81-1.09q-2.4-.6-4.29-1a13.9,13.9,0,0,1-6-3.09q-2.25-2.14-2.25-6.64a11.57,11.57,0,0,1,2.32-7.28,13.18,13.18,0,0,1,6-4.36,22.3,22.3,0,0,1,8-1.44A29.41,29.41,0,0,1,173.6,64.4Z"/><path class="cls-1" d="M210.55,64.4l-4.39,8.37A14.42,14.42,0,0,0,199.09,71a6.62,6.62,0,0,0-2.78.63,1.88,1.88,0,0,0-1.3,1.86,1.81,1.81,0,0,0,.63,1.45,3.8,3.8,0,0,0,1.52.94,10.55,10.55,0,0,0,1.86.5c.35,0,1,.16,1.9.35q10.72,2.17,10.72,11a12.1,12.1,0,0,1-2.46,7.7,15.05,15.05,0,0,1-6.47,4.6,26.18,26.18,0,0,1-8.51,1.44,28,28,0,0,1-14.9-4.25L184,88a22.9,22.9,0,0,0,5.14,2.6,14.15,14.15,0,0,0,5.23,1.13,5.47,5.47,0,0,0,2.82-.71,2.29,2.29,0,0,0,1.3-2.07,2.19,2.19,0,0,0-1.09-2,11.28,11.28,0,0,0-2.82-1.09c-1.59-.4-3-.73-4.28-1a13.9,13.9,0,0,1-6-3.09q-2.25-2.14-2.25-6.64a11.57,11.57,0,0,1,2.32-7.28,13.18,13.18,0,0,1,6-4.36,22.3,22.3,0,0,1,8-1.44A29.41,29.41,0,0,1,210.55,64.4Z"/><path class="cls-1" d="M218.71,44.56l13.11-4.13V67.92H232a14.64,14.64,0,0,1,5.1-4.43,15.13,15.13,0,0,1,6.71-1.44q6.85,0,10.34,4.15t3.55,11.39v22.6H244.55v-19a14.38,14.38,0,0,0-1.16-6.39q-1.17-2.35-4.75-2.36c-2.44,0-4.18.83-5.24,2.5a11.5,11.5,0,0,0-1.58,6.25v19H218.71Z"/><path class="cls-1" d="M285.82,62.05a26.78,26.78,0,0,1,11.07,2.28,18.65,18.65,0,0,1,4.54,2.85,20.32,20.32,0,0,1,3.62,4,18.7,18.7,0,0,1,3,10.58,18.24,18.24,0,0,1-3,10.51,19.91,19.91,0,0,1-8.16,6.82,26.63,26.63,0,0,1-11.07,2.32,27.08,27.08,0,0,1-11.11-2.32,22.35,22.35,0,0,1-4.55-2.9,18.86,18.86,0,0,1-3.57-3.92,18.24,18.24,0,0,1-3-10.51,18.7,18.7,0,0,1,3-10.58,19.73,19.73,0,0,1,8.12-6.86A27.24,27.24,0,0,1,285.82,62.05Zm0,11.35a8.3,8.3,0,0,0-4.46,1.16,6.87,6.87,0,0,0-3,3,8.94,8.94,0,0,0-1,4.18A8,8,0,0,0,285.82,90,8.15,8.15,0,0,0,292,87.68a8,8,0,0,0,2.25-5.91,8.94,8.94,0,0,0-1-4.18,7.18,7.18,0,0,0-2.95-3A8.36,8.36,0,0,0,285.82,73.4Z"/><path class="cls-1" d="M375.75,63.24v4.19h.14a11.31,11.31,0,0,1,4.71-4.05,15.38,15.38,0,0,1,6.47-1.33,17.51,17.51,0,0,1,7.49,1.58,18.77,18.77,0,0,1,6,4.29,19,19,0,0,1,3.79,6.36,20,20,0,0,1,1.37,7.56,21.53,21.53,0,0,1-1.3,7.49,20.09,20.09,0,0,1-3.86,6.33,18,18,0,0,1-5.91,4.25,18.23,18.23,0,0,1-7.42,1.51,16.82,16.82,0,0,1-6.33-1.23,12.61,12.61,0,0,1-5.13-3.51v21.93H362.67V65.24Zm8,10.16a8.31,8.31,0,0,0-4.47,1.16,6.8,6.8,0,0,0-2.95,3,8.54,8.54,0,0,0-1,4.18,8,8,0,0,0,2.25,5.91,9.31,9.31,0,0,0,12.37,0,8,8,0,0,0,2.22-5.91,8.89,8.89,0,0,0-1-4.18,7.06,7.06,0,0,0-2.95-3A8.3,8.3,0,0,0,383.77,73.4Z"/><path class="cls-1" d="M450.14,82.54v1.38H422.58q0,8.22,8.19,8.22A6.79,6.79,0,0,0,437,88.73h12.62a14.68,14.68,0,0,1-3.83,7.07,17.37,17.37,0,0,1-6.68,4.25,24.54,24.54,0,0,1-8.3,1.37,25.68,25.68,0,0,1-11-2.32,16.93,16.93,0,0,1-7.61-6.68,20.05,20.05,0,0,1-2.75-10.65,20.82,20.82,0,0,1,2.61-10.51,17.24,17.24,0,0,1,7.2-6.86,23.09,23.09,0,0,1,10.66-2.35,23.94,23.94,0,0,1,8.54,1.44,16.81,16.81,0,0,1,6.36,4,18.24,18.24,0,0,1,3.94,6.5A24.2,24.2,0,0,1,450.14,82.54Zm-27.35-6.18H438a6.48,6.48,0,0,0-2.6-4.26,7.67,7.67,0,0,0-4.82-1.58,8.46,8.46,0,0,0-5,1.51A6.66,6.66,0,0,0,422.79,76.36Z"/><path class="cls-1" d="M469.23,63.24v6.05h.14q3.63-6.54,11.95-6.54h2.5V75.34a11.89,11.89,0,0,0-5.52-1.2c-3.33,0-5.68,1-7.07,3s-2,4.6-2,8.19v14.9H456.12L456,66.56Z"/><path class="cls-1" d="M517.54,64.4l-4.4,8.37A14.4,14.4,0,0,0,506.07,71a6.57,6.57,0,0,0-2.77.63,1.87,1.87,0,0,0-1.3,1.86,1.81,1.81,0,0,0,.63,1.45,3.76,3.76,0,0,0,1.51.94,11,11,0,0,0,1.86.5c.36,0,1,.16,1.9.35q10.73,2.17,10.72,11a12.1,12.1,0,0,1-2.46,7.7,15,15,0,0,1-6.46,4.6,26.23,26.23,0,0,1-8.51,1.44,28.06,28.06,0,0,1-14.91-4.25L491,88a22.59,22.59,0,0,0,5.13,2.6,14.2,14.2,0,0,0,5.24,1.13,5.43,5.43,0,0,0,2.81-.71,2.27,2.27,0,0,0,1.3-2.07,2.17,2.17,0,0,0-1.09-2,11,11,0,0,0-2.81-1.09q-2.39-.6-4.29-1a14,14,0,0,1-6-3.09q-2.25-2.14-2.25-6.64a11.63,11.63,0,0,1,2.32-7.28,13.23,13.23,0,0,1,6-4.36,22.3,22.3,0,0,1,8-1.44A29.46,29.46,0,0,1,517.54,64.4Z"/><path class="cls-1" d="M175.33,142.2v37H162.22V175h-.14a11,11,0,0,1-4.68,4,15.53,15.53,0,0,1-6.47,1.37,17.43,17.43,0,0,1-9.6-2.74,18.1,18.1,0,0,1-6.67-7.21,20.68,20.68,0,0,1-2.4-9.77,19.81,19.81,0,0,1,1.38-7.49,18.48,18.48,0,0,1,9.7-10.63,17.62,17.62,0,0,1,7.42-1.53,18.2,18.2,0,0,1,6.43,1.19,13.22,13.22,0,0,1,5,3.62V142.2Zm-21.09,10.16a8,8,0,0,0-4.47,1.16,6.85,6.85,0,0,0-3,3,8.54,8.54,0,0,0-1,4.18,8,8,0,0,0,2.25,5.91,9.31,9.31,0,0,0,12.37,0,8,8,0,0,0,2.22-5.91,9,9,0,0,0-1-4.18,7.1,7.1,0,0,0-3-3A8,8,0,0,0,154.24,152.36Z"/><path class="cls-1" d="M326.64,63.24v4.19h.14a11.31,11.31,0,0,1,4.71-4.05A15.34,15.34,0,0,1,338,62.05a17.51,17.51,0,0,1,7.49,1.58,18.62,18.62,0,0,1,6,4.29,18.83,18.83,0,0,1,3.8,6.36,20.22,20.22,0,0,1,1.37,7.56,21.53,21.53,0,0,1-1.3,7.49,19.93,19.93,0,0,1-3.87,6.33,17.94,17.94,0,0,1-5.9,4.25,18.23,18.23,0,0,1-7.42,1.51,16.82,16.82,0,0,1-6.33-1.23,12.48,12.48,0,0,1-5.13-3.51v21.93H313.56V65.24Zm8,10.16a8.3,8.3,0,0,0-4.46,1.16,6.87,6.87,0,0,0-3,3,8.54,8.54,0,0,0-1,4.18,8,8,0,0,0,2.25,5.91,9.33,9.33,0,0,0,12.38,0,8,8,0,0,0,2.21-5.91,8.88,8.88,0,0,0-1-4.18,7.12,7.12,0,0,0-2.95-3A8.31,8.31,0,0,0,334.65,73.4Z"/><path class="cls-2" d="M160.12,143.29a6.79,6.79,0,0,1,2-2.61c.83-.64,1.32-1.74,2.29-2.32-.06-1.37,1.61-1.51,1.89-2.75s1.71-1.58,2.52-2.44c.64-.69,1.52-1.18,1.65-2.25,1.17-.27,1.44-1.47,2.17-2.09,1.32-1.13,2-2.84,3.34-3.77a25.35,25.35,0,0,0,3.67-3.81l2.08,1.27c-.24-.71-.38-1.11-.57-1.68l.83-1.94,1.11.16c0-.42-.07-.76-.11-1.17l2.18-1c.15-.49.27-.93.38-1.3a8.18,8.18,0,0,1,1.32-.59,4.49,4.49,0,0,1,1.15,0l-.31-.69a16.7,16.7,0,0,1,4.62-4.69l1.24.88-.56-1.91c2.7-1.25,3.95-4.31,6.35-4.86,1.26-.92,1.56-1.95,2.65-2.41a9.32,9.32,0,0,0,2.16-1.91l.47.15.32-.72.94.78a3.78,3.78,0,0,1,2.26-3.44,18.83,18.83,0,0,0,3.21-2.53,71.24,71.24,0,0,0,5.94-4.81c.84-.85,2-1,2.7-1.95,1.32-1.8,3.42-2.53,5.07-3.89s3.52-2.44,5.16-3.82c1.12-.93,2.34-1.72,3.5-2.58s2.74-1.38,3.65-2.46,2-.9,2.6-1.7c.73-1.1,1.87-1.28,2.85-1.84.09,0,.29.08.45.13-.25.3-.49.59-1.11,1.36.91-.42,1.5-.5,1.64-.79a8.85,8.85,0,0,0,.45-2c2-.64,3.17-2.83,5.93-2.89L247.52,68a7,7,0,0,0,3.75-1.37,14.27,14.27,0,0,1,1.86-1.36c.71-.47,1.33-1.07,2.06-1.52a14.76,14.76,0,0,1,2-.92c.51-.22.28-1.27,1.33-1,.41.11,1-.68,1.55-.89s1-1,1.57-1.29A8.16,8.16,0,0,1,265,58.3c-2.59,1.9-5.14,3.21-7.09,5.56l1.75.34c.25-.65.45-1.15.61-1.56.72-.63,1.67-.58,2.27-1.48.4-.58,1.54-.65,2.3-1s1.37-.82,2.07-1.2c.09,0,.28.09.4.14l-.17.66.66.34c-.16.39-.29.7-.27.63l-2.42.86,1.83,1.1c.69-.5,1.67-.86,2-1.54.52-1,1.58,0,2.14-.93.42-.67,1.39-1,2.11-1.46l2.12-1.38,1.33,1.24.15-1.71a13.93,13.93,0,0,0,2-1.67c.63-.77,1.15-1.5,2.2-1.12l1.21-1.55,1.52.62c.09-.55.18-1.06.25-1.53l1.1.26-.52-1c-1.1.12-1.81,1.22-2.91.64l-.55,1.35c-1.12.86-2.67.8-3.28,2l-2.48.26.11,1.14h-1.73l-.36.8-1.07-.38,1-1.27.82.3.59-2.43,1.1.12L278,51.38l1.09.92,2.76-2.19-.2-.87.9,0,.71.2c-.11-.59-.23-1.18-.35-1.81l1.35.28c.12-.34.25-.68.39-1.07l-.78-.23-6.94,4.13-.3-.26.42-.86c1.2-.72,2.5-1.09,3.09-2,.79-1.14,2.19-.42,3-1.51.49-.68,1.78-.7,2.22-1.7,2.29-.62,3.82-2.56,6-3.39,1.52-.58,3-1.34,4.45-2l-.49-.2,1-.85c-2,1.3-6.75,3.55-9,3.92,1.33-.73,2.74-1.3,4.08-2s2.47-1.66,3.8-2.3c3.52-1.7,7.05-3.37,10.66-4.87,1.2-.5,1.91-1.5,3-2.09.62-.35,1.43.68,1.87-.45.13-.31,1.2-.25,1.32-.56.39-1,1.18-.24,1.76-.54,2.74-1.43,5.65-2.51,8.37-4s5.81-1.75,8.47-3.25a15,15,0,0,1,1.37-.63l.05,1.8,1.7-.91,0-1.24,2.19.1-1.35,1.06.26.34,2.75-1.85c-.15.47-.22.72-.3,1,1.33.31,1.75-.92,2.33-1.38l2.71,1c0,.06-.1.3-.17.55,1.21.47,2.48.88,2.81,2.39L344,25l2.41.51-.52,1.41-2.56,1.18-.3,1.58,4.43-.81-.64,2.37-.67-.21-1.58,1.58c-2.78.52-5.52.62-7.9,1.58-3.31,1.34-6.82,2.11-10,3.84-2.54,1.4-5.25,2.5-7.91,3.67a12.79,12.79,0,0,1-2.06.53,8.23,8.23,0,0,0-1.47,1.14c-.55.68-1.4,0-2,.63a8,8,0,0,1-2.29,1.32q-5.31,2.47-10.64,4.91c-.5.23-1.23.32-1.45.71-.85,1.53-2.56,1.51-3.84,2.25-.23.13-.55-.13-.94.32a5.73,5.73,0,0,1-2.67,1.92c-1.2.26-1.93,1.23-3,1.48a7,7,0,0,1-1.18.09c-.47.57-.85,1.46-1.46,1.68-2.39.84-4.24,2.58-6.47,3.66a4.94,4.94,0,0,0-2.17,1.43,2.16,2.16,0,0,1-2.61.78c-.7,1.35-1.54,2.48-3.31,2.18-.17.44-.32.87-.5,1.34-.79.36-2,.53-2.35,1.17-.65,1.11-2,1-2.57,1.76a6.64,6.64,0,0,1-2.59,1.73c-.32.16-.84.24-.93.49-.51,1.39-2.46,1-2.9,2.48-1.81.38-3,1.89-4.5,2.73-1.21.65-2.18,1.75-3.55,2.17-.25,1.1-1.34,1.07-2,1.55s-1.54,1.09-2.3,1.65a13.34,13.34,0,0,1-2.05,1.51c-2.55,1.2-4.46,3.37-7,4.48-.56,1.6-2.47,1.37-3.45,2.66s-2.79,1.51-3.85,2.6c-.79.81-1.82,1-2.55,1.76-2.76,2.68-6.07,4.66-9,7.06-1.53,1.23-3.1,2.42-4.69,3.58a50.89,50.89,0,0,0-4.75,3.82c-1.19,1.13-2.76,1.75-3.85,3a28.63,28.63,0,0,1-3.1,2.62c-1.88,1.57-3.77,3.14-5.54,4.83s-3.9,2.73-5.13,4.86c-.07.13-.31.18-.49.23-1.25.33-1.88,1.47-2.85,2.16-1.55,1.08-2.28,2.89-3.86,4a32,32,0,0,0-4,3.85c-1.77,1.8-3.55,3.58-5.28,5.41s-3.37,3.77-5.1,5.57c-2.63,2.73-5.22,5.48-7.6,8.42-2.55,3.14-5.08,6.28-7.55,9.48-2,2.55-3.72,5.25-5.73,7.75-1.48,1.83-2.53,4-4.45,5.48-1.38,2.9-3.87,4.9-6,7.17-3,3.2-3.09,3.12-6.7,3.56l-.12-.73,2.74-1.42c-1.4-.08-2.43,1-4,1a8.29,8.29,0,0,0,.46-1.7,6,6,0,0,0-.23-1.44c.28-.38.5-.74.78-1.05.65-.73.58-1.79,1.3-2.52,1.91-1.93,2.43-4.93,4.88-6.47.08-.06,0-.33.05-.49.27-1.76,2.54-2.33,2.56-4.26,0-.08.31-.14.47-.23l.59-.38c.08-1.48,0-1.61.56-1.9s.66-.78,1-1.17c1.1-1.32,1.2-3.29,2.78-4.29.21-1.76,2-2.45,2.63-4.08s2.14-3.05,3.11-4.6a57.78,57.78,0,0,1,3.85-5c1-1.24,1.87-2.54,2.78-3.79l.71.15c-.07-.39-.12-.64-.19-1C159.45,143.8,160,143.63,160.12,143.29ZM255.6,74.38c1.23-.22,1.86-1.45,3-1.73.07,0,.17.06.25.09l1.49-1.89.87.28c.11-.25.15-.6.34-.72q1.86-1.17,3.78-2.25c.16-.09.49.12.79.21.27-.36.46-.91.78-1,1.95-.52,3.35-2,4.93-3s3-1.75,4.58-2.6a10.37,10.37,0,0,0,2.28-1.65c1.55-1.56,3.63-2.15,5.44-3.1.19-.5.35-.92.51-1.38,1.15.48,1.74-.22,2.23-1.06l1.84-.1c.28-.64.52-1.2.77-1.76,1.07,0,2.16.14,2.77-1,1.92-.05,2.88-1.91,4.61-2.41a7.8,7.8,0,0,0,4.37-3c-1.08.41-2.17,1.25-3,1-1.64-.42-1.7,1.38-2.83,1.53-1,.13-2.11-.13-2.84.89A3.06,3.06,0,0,1,289.76,51l-1.14,1.46-.42-.12c-1.06.64-2,1.2-3,1.79-1.1.69-2.2,1.38-3.27,2.11-.72.49-1.69.17-2.37,1-.5.62-1.61.63-2,1.57-.11.25-.64.29-.95.47-1,.59-2.29.65-2.95,1.72s-2.13.59-2.42,1.92c0,.21-.6.36-.95.46a10.89,10.89,0,0,0-3.72,2.39c-.63.5-1.28,1-1.94,1.4s-1.71.75-2.33,1.64c-.45.65-1.45.69-2.09,1.5s-2,1.1-3,2a20.87,20.87,0,0,1-4,2.51c-1.19.72-2.08,1.91-3.52,2.22-.45,1.59-2.39,1.21-3.23,2.54-.62,1-2.28,1.08-3.19,2.16-.65.77-2.05.6-2.64,1.68-.49.89-1.79.59-2.31,1.65-.44.91-1.78.83-2.46,1.84-.56.85-1.93.93-2.77,1.88s-2.4,1.65-3.66,2.46l.28.74c.21,0,.44.07.54,0a14.77,14.77,0,0,1,2.63-2.34c2.26-1.17,4.13-2.88,6.22-4.26s4.08-2.77,6-4.31c1.42-1.12,3.25-1.85,4.76-3a17.86,17.86,0,0,0,3.66-2.78c.31-.36,1.07-.34,1.81-.55C255.37,74.84,255.45,74.41,255.6,74.38Z"/><path class="cls-2" d="M371.54,24.81c-.19-.18-.66-.4-.67-.62,0-2.36-1.43-4-2.7-5.78a12.82,12.82,0,0,0-3.6-3.87c-2.88-1.67-5.36-4.21-9-4.33-.81-1.53-3-.26-3.76-1.8-2-.05-3.72-1.14-5.61-1.58-1.19-.28-2.36-.59-3.53-1A5.35,5.35,0,0,0,341,6l-1.53-1.25-2.94-.39-.81-1.53-1,.08c-.91-.74.21-.94.37-1.4A7.16,7.16,0,0,0,330.91,0L329.3,3l1.53,3.31-.53,1.56c.92,1.47,1.17,3.31,2.66,4.54.71.59,1.23,1.44,2.18,1.7.62.16.85,1.1,1.78.73.2-.08.77.79,1.19,1.2a8.81,8.81,0,0,0,3,1.48,52.25,52.25,0,0,0,7.41,2.72c2.52.66,5,1.67,7.61,1.82a12.26,12.26,0,0,1,2.3.67c.75.2,1.5.37,2.46.6l-2.22,2.47L358,25.1c-2.07,1.19-3.37,3.32-5.41,4.78l.51,1.1-4.19,3.78c-.57.52-1.64-.19-2.14,1h1.22c-1.29.33-1.38,2.82-3.45,1.64-.72,2.55-4,3-4.28,5.78l-.76-.24a30.61,30.61,0,0,1-3.18,3.16c-1.24.92-1,2.57-2.51,3.7a7.11,7.11,0,0,0-4.38,3.87c.1.82.18,1.57.27,2.37l.75.52-.5,1.33,2.44.08c-.17.45-.33.88-.52,1.41l1.77.18C334,57.85,336,58,337.1,56.77c1.54-1.76,3.72-2.94,5.54-4.48,2.11-1.8,4.12-3.73,6.19-5.59s4.4-4,6.73-5.79c1.91-1.5,3.44-3.47,5.45-4.9.32-1.25,2.05-1,2.37-2.26,2-.67,2.87-2.7,4.7-3.56.36-.17.6-.59.94-.83C370.55,28.3,371.92,27.14,371.54,24.81Z"/><path class="cls-1" d="M243.77,62.05q6.85,0,10.34,4.15t3.55,11.39v22.6H244.55v-19a14.38,14.38,0,0,0-1.16-6.39q-1.17-2.35-4.75-2.36Z"/><path class="cls-1" d="M77.49,169.73H58.05l-3.73,9.42h-15l20.88-54.28h15.4l20.46,54.28H81Zm-3.8-10.79-5.76-17.3h-.14L62,158.94Z"/><path class="cls-1" d="M126.82,143.15v11.08a11.73,11.73,0,0,0-6.79-2.57,9.06,9.06,0,0,0-4.53,1.12,9.12,9.12,0,0,0-4.47,7.88,8.59,8.59,0,0,0,2.6,6.47,9,9,0,0,0,6.61,2.6,9.52,9.52,0,0,0,6.58-2.53v11.07a21.15,21.15,0,0,1-19.24-.42A18.83,18.83,0,0,1,97.5,161.08,20,20,0,0,1,99.08,153a20.85,20.85,0,0,1,4.39-6.36,18.4,18.4,0,0,1,6.65-4.15,22.49,22.49,0,0,1,8-1.44A17.55,17.55,0,0,1,126.82,143.15Z"/><path class="cls-1" d="M211.82,179.15V175h-.14a10.66,10.66,0,0,1-4.67,4,15.27,15.27,0,0,1-6.47,1.37,17.43,17.43,0,0,1-9.6-2.74,19.8,19.8,0,0,1-3.9-3.25,19.16,19.16,0,0,1-2.78-4,21.16,21.16,0,0,1-1-17.26,19.07,19.07,0,0,1,3.83-6.36,17.81,17.81,0,0,1,5.91-4.29A17.44,17.44,0,0,1,200.4,141a18.37,18.37,0,0,1,6.4,1.19,11.73,11.73,0,0,1,5,3.62l.2-21.26,12.92-5.17v59.76Zm-8-26.79a8.3,8.3,0,0,0-4.46,1.16,7.1,7.1,0,0,0-3,3,9,9,0,0,0-1,4.18,8.44,8.44,0,1,0,16.87,0,8.94,8.94,0,0,0-1-4.18,6.85,6.85,0,0,0-2.95-3A8.31,8.31,0,0,0,203.84,152.36Z"/><path class="cls-1" d="M271.1,161.5v1.37H243.53q0,8.24,8.2,8.23a6.79,6.79,0,0,0,6.25-3.41H270.6a14.52,14.52,0,0,1-3.83,7.07,17.29,17.29,0,0,1-6.68,4.25,24.48,24.48,0,0,1-8.29,1.37,25.73,25.73,0,0,1-11-2.32,17,17,0,0,1-7.61-6.68,20,20,0,0,1-2.74-10.65,20.92,20.92,0,0,1,2.6-10.51,17.26,17.26,0,0,1,7.21-6.86A23.08,23.08,0,0,1,250.88,141a23.9,23.9,0,0,1,8.54,1.44,16.93,16.93,0,0,1,6.37,4,18.15,18.15,0,0,1,3.94,6.5A24.17,24.17,0,0,1,271.1,161.5Zm-27.35-6.18h15.18a6.48,6.48,0,0,0-2.6-4.26,7.65,7.65,0,0,0-4.82-1.58,8.36,8.36,0,0,0-5,1.51A6.66,6.66,0,0,0,243.75,155.32Z"/><path class="cls-1" d="M290.19,142.2v4.61h.14A13.93,13.93,0,0,1,302,141q8.84,0,12.62,7a13.12,13.12,0,0,1,5.24-5.15A14.79,14.79,0,0,1,327.1,141q12.61,0,12.62,14.59v23.55H326.61V161.5a22.65,22.65,0,0,0-.95-7.27c-.63-1.86-2.12-2.78-4.47-2.78q-3.93,0-5.09,2.71a18.54,18.54,0,0,0-1.16,7.34v17.65H301.82V161.5a23.5,23.5,0,0,0-1-7.48c-.66-1.93-2.26-2.89-4.82-2.89s-4.19,1-4.85,2.89a23.5,23.5,0,0,0-1,7.48v17.65H277.07L277,144.56Z"/><path class="cls-1" d="M360.71,174.12,343,142.56l15-.36,9.88,19L377,142.56l15.37-.36-29.57,55.37h-14.7Z"/><polygon class="cls-1" points="156.58 168.74 156.59 168.74 156.58 168.73 156.58 168.74"/><path class="cls-1" d="M162.22,142.2v3.62a13.22,13.22,0,0,0-5-3.62,18.2,18.2,0,0,0-6.43-1.19,17.62,17.62,0,0,0-7.42,1.53,18.24,18.24,0,0,0-5.87,4.27l9,10.36h0c.09-.21.18-.42.29-.62a6.85,6.85,0,0,1,3-3,9.17,9.17,0,0,1,8.93,0,7.1,7.1,0,0,1,3,3,9,9,0,0,1,1,4.18,8,8,0,0,1-2.22,5.91,7.38,7.38,0,0,1-3.83,2.1l5.49,6.3h.14v4.11h13.11v-37Z"/><path class="cls-2" d="M439.81,145.43l.3.36-1.83.41.25.28-1.82.38.21.26c-.35.11-.7.25-1.06.33a5.18,5.18,0,0,1-.79,0c-.27,0-.1.4-.45.5a5.82,5.82,0,0,1-1.11.19l.27.35-1.82.41.23.25-2.29.59.25.3-2.28.62.24.29-2.28.62.26.29-2.28.6.26.3-2.25.57.22.44a2.56,2.56,0,0,0-1.79.34l.22.24-1.82.3.23.49a3.81,3.81,0,0,0-2.47.55l.23.27c-.13,0-.25.09-.33.06a1.14,1.14,0,0,0-1.27.31.28.28,0,0,1-.22,0c-.1,0-.22-.14-.28-.11-.25.15-.5.36-.79.16s-.42-.59-.73-.81c-.07-.05,0-.28,0-.38l-1.08-.41,1.81-.71a.77.77,0,0,0-.88.09c-.18.11-.49,0-.72,0-.12-.64.39-.68.66-.78a56.65,56.65,0,0,0,5.32-2.42c1.88-.91,3.69-2,5.6-2.83,1.27-.57,2.5-1.24,3.78-1.77,1.44-.6,2.83-1.34,4.29-1.89.95-.36,1.83-.85,2.78-1.2s1.82-.71,2.69-1.12,1.91-.84,2.88-1.22c1.81-.71,3.61-1.46,5.43-2.15,1.2-.45,2.39-1,3.58-1.45,1.74-.71,3.51-1.32,5.24-2.06,1.5-.63,3.09-1.07,4.61-1.66,1.27-.49,2.55-.93,3.83-1.39q3.44-1.26,6.87-2.48c1.48-.52,3-1,4.44-1.55,2.18-.85,4.42-1.49,6.62-2.28,1.31-.47,2.62-.94,3.95-1.36,1.62-.51,3.2-1.17,4.84-1.64,2.45-.72,4.84-1.58,7.26-2.38a47.61,47.61,0,0,0,5.4-1.94,2.7,2.7,0,0,1,.8-.1c.28.7-.65.52-.61,1.1a4.27,4.27,0,0,1,.52-.19c.18,0,.37,0,.67,0l-.23.6c.16.11.46.09.42.47,0,.2-.45.4,0,.61a.24.24,0,0,1-.06.08,5.89,5.89,0,0,1-.54.32,28.58,28.58,0,0,1-3,1.28c-1.39.44-2.73,1-4.11,1.51-2.08.71-4.16,1.41-6.23,2.13-1.31.46-2.61,1-3.92,1.44l.22.26s-.05.07-.08.07-1.53.23-1.63.26l-1.71.5.36.42-.5-.09c-.13,0-.28-.17-.38-.14-.65.24-1.28.5-1.92.76l.32.38-.5-.1c-.13,0-.29-.17-.38-.13-.65.23-1.28.5-1.92.75l.32.38-.51-.1c-.13,0-.28-.16-.38-.13-.64.23-1.27.5-1.91.76l.32.38c-.27,0-.42,0-.51-.12a.39.39,0,0,0-.47-.06c-1.2.47-2.41.9-3.64,1.35l.23.27c-.29.42-.67-.47-1,.08-.15.21-.65.19-1,.29l.23.29a.74.74,0,0,1-.13.12s-1,0-1.05,0l-2.66,1,.25.28a4.18,4.18,0,0,0-2,.43l.21.24s-.12.11-.17.1c-1.17-.22-2.12.53-3.18.79a11.13,11.13,0,0,0-1.6.68l.21.25c-.08,0-.15.1-.21.09a3.51,3.51,0,0,0-2.38.52,15.61,15.61,0,0,0-2.79,1.19l.25.28h-1.57l-.09.41c-.27.34-1-.27-1.15.54a5.84,5.84,0,0,0-.72,0c-.12,0-.34.09-.34.15,0,.25-.13.27-.35.3s-.79-.26-.86.37c0,0-.19.06-.29.07-.32.05-.78-.2-.84.4l-1,.08c-.09.14-.15.38-.27.41a4.25,4.25,0,0,1-.88,0c-.07.62-.59.35-.89.43a.41.41,0,0,0-.07.12s.05.05.08.08.07.1.15.24h-1.44l.26.32c-.17.4-.7-.15-.88.34s-.64.14-.95.24l-1.05.34s0,0,0,0,.05,0,.07.08a1.81,1.81,0,0,1,.15.24Z"/><path class="cls-2" d="M487.61,176.68c4.06.63,3.4.16,3.29.47l1,.37-.77.54.18.21c-.05,0-.1.12-.15.11-1.26-.09-2.48.34-3.75.25a21.3,21.3,0,0,0-3.83,0c-1,.12-2,.16-3.07.2-.31,0-.57-.26-1,0s-.73,0-1.11,0H475s-.05.05-.15.15l.95.12v.14l-1.17,0h-1.24c-.07,0-.18,0-.21,0-.41-.56-.88-.49-1.44-.2a2,2,0,0,1-.78,0H460.31c-.38,0-.82-.19-1.15.22,0,0-.09,0-.1,0-.32-.37-.68.18-.93,0a.62.62,0,0,0-.86,0c-.09.07-.34-.05-.49-.13s-.2-.26,0-.39c0,0-.07-.12-.12-.13s-.18,0-.21,0-.08.28-.17.37a.75.75,0,0,1-.45.26c-.26,0-.58-.21-.77-.12a.82.82,0,0,1-.79,0c-.2-.08-.51.12-.77.12-1.05,0-2.1,0-3.12,0l-.28-.45-.55.46c-.44.11-1.2-.31-1.66.46l-.37-.41a4.31,4.31,0,0,1-2.61,0c-.9.41-1.82,0-2.72.19a1.86,1.86,0,0,0,0-.45c-.35-.12-.3.2-.4.42h-1.19l-.16.43c-.05,0-.13,0-.15-.08a.68.68,0,0,0-.87-.31,4.84,4.84,0,0,1-2.06.2,7.81,7.81,0,0,0-1.79.17l1.08.1c-.82.08-1.7.54-2.32-.21a9,9,0,0,1-1.13.16c-1.08,0-2.16,0-3.23,0l-.18.52c-.18-.28-.33-.5-.47-.73-.08.31-.26.63-.58.41s-.54-.07-.85,0c-.57.11-1.18,0-1.79.18l.85.13c-.05.08-.08.17-.11.17-.83,0-1.66,0-2.48,0a8,8,0,0,0-1.82-.21.46.46,0,0,0-.31.17l.91.1a6,6,0,0,1-2.82,0,2.65,2.65,0,0,0-1.46.09l.63.16c0,.06-.06.15-.1.15h-1.12c-.2-.48-.5.23-.81-.08s-.61.27-1-.1c-.22-.2-.77,0-1.19.11l.89.14c-.07.07-.11.16-.15.16-.57,0-1.13,0-1.69,0a23.93,23.93,0,0,0-3.29.25c-.58.11-1.14.14-1.72.21a1.21,1.21,0,0,0-1.16.88c-.19,0-.63.08-.67,0-.16-.4-.67-.44-.79-.78a.91.91,0,0,0-.55-.58,1,1,0,0,1-.38-1.44l-.45-.47c0-.08,0-.18,0-.22a2.33,2.33,0,0,1,1.59-.81,18.39,18.39,0,0,1,3.31-.42c.65-.4,1.37-.16,2.05-.23.53-.06,1.06-.18,1.6-.22a5.45,5.45,0,0,0,1.57,0,4.31,4.31,0,0,1,1.94-.17c.83.06,1.59-.27,2.39-.25a10.26,10.26,0,0,0,2.48,0c1.52-.35,3,0,4.54-.22,1.85-.26,3.72,0,5.54-.24,2.46-.31,4.91-.07,7.36-.18.3,0,.6,0,.9,0s.53.07.7-.21c.14.36.43,0,.66.14s.5-.12.77-.14.6,0,.9,0h3.39c.3,0,.6,0,.9,0s.7-.09,1.07.16c.17.12.58-.15.89-.16.93,0,1.88,0,2.82,0,.34,0,.74.17,1-.21s.34.43.63.06c.1-.12.57-.14.62-.05.28.47.6-.25.82,0s.5-.07.74-.05a3.1,3.1,0,0,1,.42.08c.24,0,.63.21.71.12.31-.37.67,0,1-.15a3.3,3.3,0,0,1,1.22-.05c7.37,0,14.75,0,22.12,0a6.56,6.56,0,0,0,2.95-.21c.5.43,1-.05,1.51,0,1.57.07,3.15,0,4.84,0-.06.17-.09.43-.15.43a17.3,17.3,0,0,1-2.39.26c-1.65-.06-3.31,0-5,0-.06,0-.12.07-.18.11a1,1,0,0,0,.23.11c.19,0,.38.3.61,0,.06-.07.29,0,.44,0,2.18,0,4.35,0,2.66.1-3.93,0-3.93,0-3.92,0a10.12,10.12,0,0,0-1.05-.27c-.19,0-1.39,0-1.56,0s-.37-.07-.43,0c-.31.35-.7.2-1,.21-5.34,0-10.68,0-16,0-.31,0-.67.17-.95-.14-.06-.06-.25-.09-.29-.05-.34.37-.78.16-1.16.2a7.22,7.22,0,0,0-2.4.21c-.23.09-.57,0-.85-.11a2.35,2.35,0,0,0-1.59,0c-.18.09-.41-.24-.56.07a.82.82,0,0,0-1-.17c-.42.22-.72-.2-1.08,0-.06,0-.15,0-.19.06-.19.22-.32.17-.56,0a1.17,1.17,0,0,0-.86-.08,2,2,0,0,1-1,.16,4.64,4.64,0,0,0-1.06,0c-2.75.11-5.51-.13-8.26.21-2.06.25-4.15-.09-6.23.21-1.9.27-3.84-.07-5.78.23-1.52.24-3.09-.1-4.64.23a17,17,0,0,1-2.26,0,7.73,7.73,0,0,0-2.07.15,7.5,7.5,0,0,1-2.23.07,1.36,1.36,0,0,0-.35.07.49.49,0,0,0,.43.15,33.24,33.24,0,0,0,4-.19c1.6-.25,3.23.07,4.87-.22s3.11.2,4.64-.27c.21-.07.4.43.61,0,.24.37.47,0,.71,0a29.43,29.43,0,0,0,5.55-.2c.25-.06.62-.1.76,0,.32.3.47-.17.75-.07a2.3,2.3,0,0,0,.79,0c1.5,0,3,0,4.51,0,.39,0,.82.17,1.17-.19,0,0,.24.09.37.12s.46.13.51.06c.21-.27.34,0,.51,0s.39-.19.58-.19.69-.16.94.19c.22-.26.51-.21.8-.2s.6-.1.8.21c.21-.32.53-.21.82-.21,1.88,0,3.76,0,5.64,0s3.71.26,5.55-.21c.23.21.52.1.77.12s.67-.11,1-.11.81-.14,1.14.19c.37-.4.85-.19,1.27-.19,5,0,9.93,0,14.9,0C483,176.81,483.31,176.78,487.61,176.68Z"/><path class="cls-2" d="M437.55,161.18l-.38.68h1.08l0-.09-.31-.09-.34-.05c0-.13,0-.3.05-.32a3.22,3.22,0,0,1,.78-.3c.6-.1,1.21-.15,1.82-.23.3-.05.59-.14.88-.2.33.49-.31.33-.35.6.79.28,1.46-.38,2.22-.26a2.06,2.06,0,0,0-1.58,0c.06-.12.1-.3.21-.36a3.11,3.11,0,0,1,.69-.23c.39-.09.81.16,1.18-.14s.7,0,1-.29c.16-.16.62,0,1,0-.3.63-.8.38-1.2.45a2.84,2.84,0,0,0-1,.44,16.53,16.53,0,0,0,2.44-.24c.76-.18,1.48-.46,2.27-.61l-1.58-.09v-.13l3.34-.53,0,.18-1.56.41c.49.05,1,.32,1.43-.08,1,0,2-.49,3.06-.19v.75c-.19.09-.39-.19-.59.08s-.44-.14-.53.22c0,.09-.22.25-.26.23-.55-.33-1.08.07-1.62,0a2.48,2.48,0,0,1-.52-.18l-.11.57c-.32-.26-.72.31-1-.13l-.16.46c-.41-.14-.79-.43-1.25-.17l.28.34-1.94-.25-.73.73c-.35,0-.5-.42-.86-.08a2.59,2.59,0,0,1-1.14.48,1.72,1.72,0,0,1-.83-.1c-.19-.05-.34.16-.59-.05s-.23.24-.36.36a.78.78,0,0,1-.46.23c-.6,0-1.16.27-1.75.15,0,0-.06,0-.08-.08-.64.66-1.59.37-2.29.72s-1.26-.08-1.75.4a32,32,0,0,0-4.84,1.12c-1-.11-1.78.45-2.71.56a11.11,11.11,0,0,0-2.56.61c-1.44.56-3,.61-4.42,1.32-.5-.11-.81.18-1.15.48a1.88,1.88,0,0,1-.76.24c-.49-.38-.77-.89-1.31-1.07l.3-1.2a27.42,27.42,0,0,1,3.94-1.18c.64-.11,1.25-.46,1.89-.57.8-.15,1.58-.41,2.38-.51s1.66-.39,2.48-.58c.51-.11,1.05-.24,1.55-.31.85-.13,1.64-.47,2.5-.55a12.12,12.12,0,0,0,1.52-.39c.35-.08.74.13,1.07-.15s.76.11,1-.31a5.59,5.59,0,0,0,1.82-.23A3.41,3.41,0,0,0,437.55,161.18Z"/></g></g></svg>